# xmcd CD database file
#
# Track frame offsets:
#	150
#	14685
#	34435
#
# Disc length: 654 seconds
#
# Revision: 3
# Processed by: cddbd v1.5.2PL0 Copyright (c) Steve Scherf et al.
# Submitted via: jetAudio 7
#
DISCID=23028c03
DTITLE=Mink - ぜったい きっと 好き
DYEAR=1995
DGENRE=JPop
TTITLE0=ぜったい きっと 好き
TTITLE1=あしたがほほえむ
TTITLE2=ぜったい きっと 好き (オリジナル・カラオケ)
EXTD=YEAR: 1995
EXTT0=
EXTT1=
EXTT2=
PLAYORDER=
